# xmcd
#
# Track frame offsets: 
#        183
#        16728
#        31055
#        43148
#        60963
#        74068
#        90798
#        99950
#        111633
#        129308
#        143935
#        154815
#        170553
#        184835
#        199118
#        210045
#
# Disc length: 2953 seconds
#
# Revision: 0
# Processed by: cddbd v1.5.2PL0 Copyright (c) Steve Scherf et al.
# Submitted via: ExactAudioCopy v0.99pb5
#
DISCID=d00b8710
DTITLE=Various Artist - Speed - La Compilation Ad Alta Velocità
DYEAR=1996
DGENRE=Hardcore
TTITLE0=Subsonic Force - Everything Counts
TTITLE1=DJ Thoka - You Make Me Feel So Gooood!
TTITLE2=Karamas - Tears Don't Lie
TTITLE3=Twenty to Two - Back For Good
TTITLE4=Aural 4 Play - Kick Some Ass
TTITLE5=The Mousetraps - Fast Night
TTITLE6=The Ultimate Seduction - Together Forever
TTITLE7=Inter Nation - Little Hardcore
TTITLE8=Fabietto DJ - Treasure
TTITLE9=Tom, Dick and Harry - Love Me, Please Love Me
TTITLE10=Stunned Guys - Love Really Sucks
TTITLE11=The Insects - Maximum Power
TTITLE12=Power Band feat. Alexia - Can't Help Falling in Love
TTITLE13=The Insects - Hypnose
TTITLE14=Magic Vision - Stay Another Day
TTITLE15=Twenty to Two - Back For Back
EXTD=
EXTT0=
EXTT1=
EXTT2=
EXTT3=
EXTT4=
EXTT5=
EXTT6=
EXTT7=
EXTT8=
EXTT9=
EXTT10=
EXTT11=
EXTT12=
EXTT13=
EXTT14=
EXTT15=
PLAYORDER=
